# xmcd
#
# Track frame offsets:
#	150
#	11000
#	18600
#	27287
#	34925
#	44537
#	53950
#	59925
#	70362
#	79287
#
# Disc length: 1196
#
# Revision: 1
# Processed by: cddbd v1.5.1PL0 Copyright (c) Steve Scherf et al.
# Submitted via: dBpowerAMP V4.0
# Normalized: r0:TRMNUM
#
DISCID=9204aa0a
DTITLE=Duane Eddy - Rebel Rouser
DYEAR=1900
DGENRE=
TTITLE0=Rebel Rouser
TTITLE1=Ramrod
TTITLE2=Cannon Ball
TTITLE3=The Lonely One
TTITLE4=Yep
TTITLE5=Forty Miles of Bad Road
TTITLE6=Some Kind'a  Earthquake
TTITLE7=Bonnie Come Back
TTITLE8=Because They're Young
TTITLE9=Peter Gunn
EXTD=
EXTT0=
EXTT1=
EXTT2=
EXTT3=
EXTT4=
EXTT5=
EXTT6=
EXTT7=
EXTT8=
EXTT9=
PLAYORDER=
